<svg width="25" height="25" viewBox="0 0 25 25" fill="none" xmlns="http://www.w3.org/2000/svg">
<path d="M21.2059 3.81879H19.099V1.73546C19.099 1.55128 19.0258 1.37465 18.8956 1.24441C18.7653 1.11418 18.5887 1.04102 18.4045 1.04102C18.2203 1.04102 18.0437 1.11418 17.9135 1.24441C17.7832 1.37465 17.7101 1.55128 17.7101 1.73546V3.81879H6.94618V1.73546C6.94618 1.55128 6.87302 1.37465 6.74278 1.24441C6.61255 1.11418 6.43591 1.04102 6.25174 1.04102C6.06756 1.04102 5.89092 1.11418 5.76069 1.24441C5.63046 1.37465 5.55729 1.55128 5.55729 1.73546V3.81879H3.79757C3.15924 3.81889 2.54707 4.0725 2.0957 4.52387C1.64433 4.97524 1.39072 5.5874 1.39062 6.22574V21.5507C1.39072 22.1891 1.64433 22.8012 2.0957 23.2526C2.54707 23.704 3.15924 23.9576 3.79757 23.9577H21.2059C21.8442 23.9576 22.4564 23.704 22.9078 23.2526C23.3591 22.8012 23.6128 22.1891 23.6128 21.5507V6.22574C23.6128 5.5874 23.3591 4.97524 22.9078 4.52387C22.4564 4.0725 21.8442 3.81889 21.2059 3.81879ZM3.79757 5.20768H5.55729V6.94379C5.55729 7.12797 5.63046 7.30461 5.76069 7.43484C5.89092 7.56507 6.06756 7.63824 6.25174 7.63824C6.43591 7.63824 6.61255 7.56507 6.74278 7.43484C6.87302 7.30461 6.94618 7.12797 6.94618 6.94379V5.20768H17.7101V6.94379C17.7101 7.12797 17.7832 7.30461 17.9135 7.43484C18.0437 7.56507 18.2203 7.63824 18.4045 7.63824C18.5887 7.63824 18.7653 7.56507 18.8956 7.43484C19.0258 7.30461 19.099 7.12797 19.099 6.94379V5.20768H21.2059C21.4759 5.20768 21.7349 5.31494 21.9258 5.50586C22.1167 5.69679 22.224 5.95573 22.224 6.22574V9.72157H2.77951V6.22574C2.77951 5.95573 2.88677 5.69679 3.0777 5.50586C3.26862 5.31494 3.52756 5.20768 3.79757 5.20768ZM21.2059 22.5688H3.79757C3.66388 22.5688 3.53149 22.5425 3.40798 22.4913C3.28446 22.4401 3.17223 22.3651 3.0777 22.2706C2.98316 22.1761 2.90817 22.0638 2.85701 21.9403C2.80585 21.8168 2.77951 21.6844 2.77951 21.5507V10.416H22.224V21.5507C22.224 21.6844 22.1977 21.8168 22.1466 21.9404C22.0954 22.0639 22.0204 22.1762 21.9259 22.2707C21.8313 22.3653 21.7191 22.4402 21.5955 22.4914C21.472 22.5425 21.3396 22.5688 21.2059 22.5688Z" fill="url(#paint0_linear_12525_22635)"/>
<path d="M20.7977 19.6674C20.6056 19.6674 20.4147 19.8227 20.4147 20.0147C20.4147 20.7747 20.1716 20.8338 19.8279 20.8338H17.6369C17.5448 20.8338 17.4565 20.8703 17.3914 20.9355C17.3263 21.0006 17.2897 21.0889 17.2897 21.181C17.2897 21.2731 17.3263 21.3614 17.3914 21.4265C17.4565 21.4916 17.5448 21.5282 17.6369 21.5282H19.8279C20.6247 21.5282 21.0886 21.0813 21.14 20.199C21.1438 20.1793 21.181 20.1598 21.181 20.1393V20.0147C21.181 19.8227 20.99 19.6674 20.7977 19.6674ZM20.7904 18.8931C20.8806 18.8931 20.9709 18.8543 21.0369 18.7921C21.1006 18.7258 21.1366 18.6378 21.1376 18.5459C21.1376 18.4546 21.0997 18.3647 21.0369 18.299C20.9049 18.1709 20.6723 18.1709 20.5438 18.299C20.481 18.365 20.4431 18.4546 20.4431 18.5459C20.4431 18.64 20.481 18.7268 20.5438 18.7921C20.6095 18.8546 20.6963 18.8931 20.7904 18.8931ZM6.52648 12.8477H6.17925C6.08716 12.8477 5.99885 12.8842 5.93373 12.9494C5.86861 13.0145 5.83203 13.1028 5.83203 13.1949C5.83203 13.287 5.86861 13.3753 5.93373 13.4404C5.99885 13.5055 6.08716 13.5421 6.17925 13.5421H6.52648C6.61856 13.5421 6.70688 13.5055 6.772 13.4404C6.83712 13.3753 6.8737 13.287 6.8737 13.1949C6.8737 13.1028 6.83712 13.0145 6.772 12.9494C6.70688 12.8842 6.61856 12.8477 6.52648 12.8477ZM8.95703 12.8477H8.60981C8.51772 12.8477 8.4294 12.8842 8.36429 12.9494C8.29917 13.0145 8.26259 13.1028 8.26259 13.1949C8.26259 13.287 8.29917 13.3753 8.36429 13.4404C8.4294 13.5055 8.51772 13.5421 8.60981 13.5421H8.95703C9.04912 13.5421 9.13744 13.5055 9.20255 13.4404C9.26767 13.3753 9.30425 13.287 9.30425 13.1949C9.30425 13.1028 9.26767 13.0145 9.20255 12.9494C9.13744 12.8842 9.04912 12.8477 8.95703 12.8477ZM11.3876 12.8477H11.0404C10.9483 12.8477 10.86 12.8842 10.7948 12.9494C10.7297 13.0145 10.6931 13.1028 10.6931 13.1949C10.6931 13.287 10.7297 13.3753 10.7948 13.4404C10.86 13.5055 10.9483 13.5421 11.0404 13.5421H11.3876C11.4797 13.5421 11.568 13.5055 11.6331 13.4404C11.6982 13.3753 11.7348 13.287 11.7348 13.1949C11.7348 13.1028 11.6982 13.0145 11.6331 12.9494C11.568 12.8842 11.4797 12.8477 11.3876 12.8477ZM13.4709 12.8477H13.1237C13.0316 12.8477 12.9433 12.8842 12.8782 12.9494C12.8131 13.0145 12.7765 13.1028 12.7765 13.1949C12.7765 13.287 12.8131 13.3753 12.8782 13.4404C12.9433 13.5055 13.0316 13.5421 13.1237 13.5421H13.4709C13.563 13.5421 13.6513 13.5055 13.7164 13.4404C13.7816 13.3753 13.8181 13.287 13.8181 13.1949C13.8181 13.1028 13.7816 13.0145 13.7164 12.9494C13.6513 12.8842 13.563 12.8477 13.4709 12.8477ZM15.9015 12.8477H15.5543C15.4622 12.8477 15.3738 12.8842 15.3087 12.9494C15.2436 13.0145 15.207 13.1028 15.207 13.1949C15.207 13.287 15.2436 13.3753 15.3087 13.4404C15.3738 13.5055 15.4622 13.5421 15.5543 13.5421H15.9015C15.9936 13.5421 16.0819 13.5055 16.147 13.4404C16.2121 13.3753 16.2487 13.287 16.2487 13.1949C16.2487 13.1028 16.2121 13.0145 16.147 12.9494C16.0819 12.8842 15.9936 12.8477 15.9015 12.8477ZM17.9848 13.5421H18.332C18.4241 13.5421 18.5124 13.5055 18.5776 13.4404C18.6427 13.3753 18.6793 13.287 18.6793 13.1949C18.6793 13.1028 18.6427 13.0145 18.5776 12.9494C18.5124 12.8842 18.4241 12.8477 18.332 12.8477H17.9848C17.8927 12.8477 17.8044 12.8842 17.7393 12.9494C17.6742 13.0145 17.6376 13.1028 17.6376 13.1949C17.6376 13.287 17.6742 13.3753 17.7393 13.4404C17.8044 13.5055 17.8927 13.5421 17.9848 13.5421ZM6.52648 14.931H6.17925C6.08716 14.931 5.99885 14.9676 5.93373 15.0327C5.86861 15.0978 5.83203 15.1861 5.83203 15.2782C5.83203 15.3703 5.86861 15.4586 5.93373 15.5237C5.99885 15.5889 6.08716 15.6254 6.17925 15.6254H6.52648C6.61856 15.6254 6.70688 15.5889 6.772 15.5237C6.83712 15.4586 6.8737 15.3703 6.8737 15.2782C6.8737 15.1861 6.83712 15.0978 6.772 15.0327C6.70688 14.9676 6.61856 14.931 6.52648 14.931ZM8.95703 14.931H8.60981C8.51772 14.931 8.4294 14.9676 8.36429 15.0327C8.29917 15.0978 8.26259 15.1861 8.26259 15.2782C8.26259 15.3703 8.29917 15.4586 8.36429 15.5237C8.4294 15.5889 8.51772 15.6254 8.60981 15.6254H8.95703C9.04912 15.6254 9.13744 15.5889 9.20255 15.5237C9.26767 15.4586 9.30425 15.3703 9.30425 15.2782C9.30425 15.1861 9.26767 15.0978 9.20255 15.0327C9.13744 14.9676 9.04912 14.931 8.95703 14.931ZM11.3876 14.931H11.0404C10.9483 14.931 10.86 14.9676 10.7948 15.0327C10.7297 15.0978 10.6931 15.1861 10.6931 15.2782C10.6931 15.3703 10.7297 15.4586 10.7948 15.5237C10.86 15.5889 10.9483 15.6254 11.0404 15.6254H11.3876C11.4797 15.6254 11.568 15.5889 11.6331 15.5237C11.6982 15.4586 11.7348 15.3703 11.7348 15.2782C11.7348 15.1861 11.6982 15.0978 11.6331 15.0327C11.568 14.9676 11.4797 14.931 11.3876 14.931ZM13.4709 14.931H13.1237C13.0316 14.931 12.9433 14.9676 12.8782 15.0327C12.8131 15.0978 12.7765 15.1861 12.7765 15.2782C12.7765 15.3703 12.8131 15.4586 12.8782 15.5237C12.9433 15.5889 13.0316 15.6254 13.1237 15.6254H13.4709C13.563 15.6254 13.6513 15.5889 13.7164 15.5237C13.7816 15.4586 13.8181 15.3703 13.8181 15.2782C13.8181 15.1861 13.7816 15.0978 13.7164 15.0327C13.6513 14.9676 13.563 14.931 13.4709 14.931ZM15.9015 14.931H15.5543C15.4622 14.931 15.3738 14.9676 15.3087 15.0327C15.2436 15.0978 15.207 15.1861 15.207 15.2782C15.207 15.3703 15.2436 15.4586 15.3087 15.5237C15.3738 15.5889 15.4622 15.6254 15.5543 15.6254H15.9015C15.9936 15.6254 16.0819 15.5889 16.147 15.5237C16.2121 15.4586 16.2487 15.3703 16.2487 15.2782C16.2487 15.1861 16.2121 15.0978 16.147 15.0327C16.0819 14.9676 15.9936 14.931 15.9015 14.931ZM17.9848 15.6254H18.332C18.4241 15.6254 18.5124 15.5889 18.5776 15.5237C18.6427 15.4586 18.6793 15.3703 18.6793 15.2782C18.6793 15.1861 18.6427 15.0978 18.5776 15.0327C18.5124 14.9676 18.4241 14.931 18.332 14.931H17.9848C17.8927 14.931 17.8044 14.9676 17.7393 15.0327C17.6742 15.0978 17.6376 15.1861 17.6376 15.2782C17.6376 15.3703 17.6742 15.4586 17.7393 15.5237C17.8044 15.5889 17.8927 15.6254 17.9848 15.6254ZM6.52648 19.0977H6.17925C6.08716 19.0977 5.99885 19.1342 5.93373 19.1994C5.86861 19.2645 5.83203 19.3528 5.83203 19.4449C5.83203 19.537 5.86861 19.6253 5.93373 19.6904C5.99885 19.7555 6.08716 19.7921 6.17925 19.7921H6.52648C6.61856 19.7921 6.70688 19.7555 6.772 19.6904C6.83712 19.6253 6.8737 19.537 6.8737 19.4449C6.8737 19.3528 6.83712 19.2645 6.772 19.1994C6.70688 19.1342 6.61856 19.0977 6.52648 19.0977ZM8.95703 19.0977H8.60981C8.51772 19.0977 8.4294 19.1342 8.36429 19.1994C8.29917 19.2645 8.26259 19.3528 8.26259 19.4449C8.26259 19.537 8.29917 19.6253 8.36429 19.6904C8.4294 19.7555 8.51772 19.7921 8.60981 19.7921H8.95703C9.04912 19.7921 9.13744 19.7555 9.20255 19.6904C9.26767 19.6253 9.30425 19.537 9.30425 19.4449C9.30425 19.3528 9.26767 19.2645 9.20255 19.1994C9.13744 19.1342 9.04912 19.0977 8.95703 19.0977ZM11.3876 19.0977H11.0404C10.9483 19.0977 10.86 19.1342 10.7948 19.1994C10.7297 19.2645 10.6931 19.3528 10.6931 19.4449C10.6931 19.537 10.7297 19.6253 10.7948 19.6904C10.86 19.7555 10.9483 19.7921 11.0404 19.7921H11.3876C11.4797 19.7921 11.568 19.7555 11.6331 19.6904C11.6982 19.6253 11.7348 19.537 11.7348 19.4449C11.7348 19.3528 11.6982 19.2645 11.6331 19.1994C11.568 19.1342 11.4797 19.0977 11.3876 19.0977ZM13.4709 19.0977H13.1237C13.0316 19.0977 12.9433 19.1342 12.8782 19.1994C12.8131 19.2645 12.7765 19.3528 12.7765 19.4449C12.7765 19.537 12.8131 19.6253 12.8782 19.6904C12.9433 19.7555 13.0316 19.7921 13.1237 19.7921H13.4709C13.563 19.7921 13.6513 19.7555 13.7164 19.6904C13.7816 19.6253 13.8181 19.537 13.8181 19.4449C13.8181 19.3528 13.7816 19.2645 13.7164 19.1994C13.6513 19.1342 13.563 19.0977 13.4709 19.0977ZM6.52648 17.0143H6.17925C6.08716 17.0143 5.99885 17.0509 5.93373 17.116C5.86861 17.1811 5.83203 17.2695 5.83203 17.3615C5.83203 17.4536 5.86861 17.542 5.93373 17.6071C5.99885 17.6722 6.08716 17.7088 6.17925 17.7088H6.52648C6.61856 17.7088 6.70688 17.6722 6.772 17.6071C6.83712 17.542 6.8737 17.4536 6.8737 17.3615C6.8737 17.2695 6.83712 17.1811 6.772 17.116C6.70688 17.0509 6.61856 17.0143 6.52648 17.0143ZM8.95703 17.0143H8.60981C8.51772 17.0143 8.4294 17.0509 8.36429 17.116C8.29917 17.1811 8.26259 17.2695 8.26259 17.3615C8.26259 17.4536 8.29917 17.542 8.36429 17.6071C8.4294 17.6722 8.51772 17.7088 8.60981 17.7088H8.95703C9.04912 17.7088 9.13744 17.6722 9.20255 17.6071C9.26767 17.542 9.30425 17.4536 9.30425 17.3615C9.30425 17.2695 9.26767 17.1811 9.20255 17.116C9.13744 17.0509 9.04912 17.0143 8.95703 17.0143ZM11.3876 17.0143H11.0404C10.9483 17.0143 10.86 17.0509 10.7948 17.116C10.7297 17.1811 10.6931 17.2695 10.6931 17.3615C10.6931 17.4536 10.7297 17.542 10.7948 17.6071C10.86 17.6722 10.9483 17.7088 11.0404 17.7088H11.3876C11.4797 17.7088 11.568 17.6722 11.6331 17.6071C11.6982 17.542 11.7348 17.4536 11.7348 17.3615C11.7348 17.2695 11.6982 17.1811 11.6331 17.116C11.568 17.0509 11.4797 17.0143 11.3876 17.0143ZM13.4709 17.0143H13.1237C13.0316 17.0143 12.9433 17.0509 12.8782 17.116C12.8131 17.1811 12.7765 17.2695 12.7765 17.3615C12.7765 17.4536 12.8131 17.542 12.8782 17.6071C12.9433 17.6722 13.0316 17.7088 13.1237 17.7088H13.4709C13.563 17.7088 13.6513 17.6722 13.7164 17.6071C13.7816 17.542 13.8181 17.4536 13.8181 17.3615C13.8181 17.2695 13.7816 17.1811 13.7164 17.116C13.6513 17.0509 13.563 17.0143 13.4709 17.0143ZM15.9015 17.0143H15.5543C15.4622 17.0143 15.3738 17.0509 15.3087 17.116C15.2436 17.1811 15.207 17.2695 15.207 17.3615C15.207 17.4536 15.2436 17.542 15.3087 17.6071C15.3738 17.6722 15.4622 17.7088 15.5543 17.7088H15.9015C15.9936 17.7088 16.0819 17.6722 16.147 17.6071C16.2121 17.542 16.2487 17.4536 16.2487 17.3615C16.2487 17.2695 16.2121 17.1811 16.147 17.116C16.0819 17.0509 15.9936 17.0143 15.9015 17.0143ZM17.9848 17.7088H18.332C18.4241 17.7088 18.5124 17.6722 18.5776 17.6071C18.6427 17.542 18.6793 17.4536 18.6793 17.3615C18.6793 17.2695 18.6427 17.1811 18.5776 17.116C18.5124 17.0509 18.4241 17.0143 18.332 17.0143H17.9848C17.8927 17.0143 17.8044 17.0509 17.7393 17.116C17.6742 17.1811 17.6376 17.2695 17.6376 17.3615C17.6376 17.4536 17.6742 17.542 17.7393 17.6071C17.8044 17.6722 17.8927 17.7088 17.9848 17.7088Z" fill="url(#paint1_linear_12525_22635)"/>
<defs>
<linearGradient id="paint0_linear_12525_22635" x1="12.5017" y1="1.04102" x2="12.5017" y2="23.9577" gradientUnits="userSpaceOnUse">
<stop stop-color="#AD7D29"/>
<stop offset="1" stop-color="#F7B23B"/>
</linearGradient>
<linearGradient id="paint1_linear_12525_22635" x1="13.5065" y1="12.8477" x2="13.5065" y2="21.5282" gradientUnits="userSpaceOnUse">
<stop stop-color="#AD7D29"/>
<stop offset="1" stop-color="#F7B23B"/>
</linearGradient>
</defs>
</svg>
