<svg width="24" height="19" viewBox="0 0 24 19" fill="none" xmlns="http://www.w3.org/2000/svg">
<mask id="mask0_12005_15679" style="mask-type:luminance" maskUnits="userSpaceOnUse" x="1" y="10" width="22" height="9">
<path d="M1.06396 10.8857H22.7586V18.8004H1.06396V10.8857Z" fill="white"/>
</mask>
<g mask="url(#mask0_12005_15679)">
<path d="M22.6746 18.4751L15.1429 11.16C14.9226 10.9454 14.6048 10.9454 14.3845 11.16L12.3548 13.1313C12.1514 13.3286 11.8548 13.3286 11.6514 13.1313L9.62181 11.16C9.40147 10.9454 9.08156 10.9454 8.86122 11.16L1.32953 18.4751C1.22571 18.5763 1.28715 18.7736 1.42274 18.7736H22.5835C22.7191 18.7736 22.7784 18.5763 22.6746 18.4751Z" fill="#3986A3"/>
</g>
<mask id="mask1_12005_15679" style="mask-type:luminance" maskUnits="userSpaceOnUse" x="0" y="1" width="9" height="17">
<path d="M0 1.41113H8.11432V17.8325H0V1.41113Z" fill="white"/>
</mask>
<g mask="url(#mask1_12005_15679)">
<path d="M7.91973 9.50558L0.239727 2.04493C0.144389 1.95364 0.00244141 2.03259 0.00244141 2.17568V17.4227C0.00244141 17.5658 0.144389 17.6447 0.239727 17.5534L7.91973 10.0903C8.07651 9.9398 8.07651 9.65854 7.91973 9.50558Z" fill="#3986A3"/>
</g>
<mask id="mask2_12005_15679" style="mask-type:luminance" maskUnits="userSpaceOnUse" x="1" y="0" width="22" height="12">
<path d="M1.06396 0.799805H22.7586V11.5171H1.06396V0.799805Z" fill="white"/>
</mask>
<g mask="url(#mask2_12005_15679)">
<path d="M1.32953 1.12321L11.715 11.2114C11.8824 11.3742 12.1239 11.3742 12.2913 11.2114L22.6746 1.12321C22.7784 1.02452 22.7191 0.827148 22.5835 0.827148H1.42274C1.28715 0.827148 1.22571 1.02452 1.32953 1.12321Z" fill="#3986A3"/>
</g>
<mask id="mask3_12005_15679" style="mask-type:luminance" maskUnits="userSpaceOnUse" x="15" y="1" width="9" height="17">
<path d="M15.7078 1.41113H24V17.8325H15.7078V1.41113Z" fill="white"/>
</mask>
<g mask="url(#mask3_12005_15679)">
<path d="M23.7656 2.04493L16.0856 9.50558C15.9288 9.65854 15.9288 9.9398 16.0856 10.0903L23.7656 17.5534C23.8609 17.6447 24.0029 17.5658 24.0029 17.4227V2.17568C24.0029 2.03259 23.8609 1.95364 23.7656 2.04493Z" fill="#3986A3"/>
</g>
</svg>