<svg width="35" height="34" viewBox="0 0 35 34" fill="none" xmlns="http://www.w3.org/2000/svg">
<path d="M26.2034 0.125H8.39821C4.05988 0.125 0.542969 3.60189 0.542969 7.89086V25.4935C0.542969 29.7824 4.05988 33.2593 8.39821 33.2593H26.2034C30.5418 33.2593 34.0587 29.7824 34.0587 25.4935V7.89086C34.0587 3.60189 30.5418 0.125 26.2034 0.125Z" fill="url(#paint0_radial_12525_22604)"/>
<path d="M26.2034 0.125H8.39821C4.05988 0.125 0.542969 3.60189 0.542969 7.89086V25.4935C0.542969 29.7824 4.05988 33.2593 8.39821 33.2593H26.2034C30.5418 33.2593 34.0587 29.7824 34.0587 25.4935V7.89086C34.0587 3.60189 30.5418 0.125 26.2034 0.125Z" fill="url(#paint1_radial_12525_22604)"/>
<path d="M17.3003 3.75C13.7447 3.75 13.2984 3.7654 11.902 3.82818C10.5082 3.89134 9.55684 4.10943 8.72445 4.42951C7.86325 4.76008 7.13285 5.20234 6.40519 5.92198C5.67688 6.64149 5.22952 7.36358 4.8941 8.21459C4.56942 9.03777 4.34856 9.97874 4.28585 11.356C4.2234 12.7367 4.20703 13.178 4.20703 16.6932C4.20703 20.2084 4.22274 20.6482 4.28611 22.0288C4.35026 23.4067 4.57086 24.3473 4.89436 25.1702C5.229 26.0216 5.67635 26.7437 6.40427 27.463C7.1318 28.1831 7.86221 28.6264 8.72275 28.9569C9.5558 29.277 10.5073 29.4951 11.9008 29.5583C13.2974 29.621 13.7433 29.6365 17.2987 29.6365C20.8546 29.6365 21.2995 29.621 22.6959 29.5583C24.0897 29.4951 25.0421 29.277 25.8752 28.9569C26.736 28.6264 27.4654 28.1831 28.1927 27.463C28.9211 26.7437 29.3683 26.0216 29.7038 25.1706C30.0256 24.3473 30.2466 23.4064 30.3121 22.029C30.3748 20.6485 30.3912 20.2084 30.3912 16.6932C30.3912 13.178 30.3748 12.7369 30.3121 11.3563C30.2466 9.97835 30.0256 9.0379 29.7038 8.21498C29.3683 7.36358 28.9211 6.64149 28.1927 5.92198C27.4646 5.20209 26.7363 4.75982 25.8744 4.42964C25.0398 4.10943 24.0879 3.89121 22.6941 3.82818C21.2975 3.7654 20.8529 3.75 17.2962 3.75H17.3003ZM16.1258 6.08248C16.4744 6.08196 16.8634 6.08248 17.3003 6.08248C20.796 6.08248 21.2102 6.0949 22.5907 6.1569C23.8671 6.21462 24.56 6.42547 25.0215 6.60266C25.6325 6.83719 26.068 7.11766 26.526 7.5708C26.9842 8.02381 27.2678 8.4552 27.5057 9.05926C27.6849 9.51485 27.8984 10.1998 27.9566 11.4618C28.0193 12.8262 28.0329 13.236 28.0329 16.6902C28.0329 20.1445 28.0193 20.5544 27.9566 21.9187C27.8982 23.1807 27.6849 23.8656 27.5057 24.3214C27.2684 24.9254 26.9842 25.3555 26.526 25.8083C26.0678 26.2613 25.6327 26.5416 25.0215 26.7763C24.5605 26.9543 23.8671 27.1646 22.5907 27.2223C21.2105 27.2843 20.796 27.2978 17.3003 27.2978C13.8044 27.2978 13.3901 27.2843 12.01 27.2223C10.7336 27.1641 10.0407 26.9532 9.57884 26.776C8.96796 26.5414 8.53147 26.261 8.07325 25.808C7.61503 25.355 7.33145 24.9246 7.09357 24.3203C6.91434 23.8646 6.70081 23.1797 6.64268 21.9177C6.57997 20.5532 6.5674 20.1435 6.5674 16.687C6.5674 13.2306 6.57997 12.823 6.64268 11.4585C6.70107 10.1966 6.91434 9.51162 7.09357 9.05538C7.33093 8.45132 7.61503 8.01993 8.07338 7.56692C8.53173 7.11391 8.96796 6.83343 9.57897 6.59839C10.0405 6.42042 10.7336 6.21009 12.01 6.15211C13.2178 6.09814 13.6858 6.08196 16.1258 6.07924V6.08248ZM24.2888 8.23155C23.4215 8.23155 22.7178 8.92659 22.7178 9.7842C22.7178 10.6417 23.4215 11.3374 24.2888 11.3374C25.1562 11.3374 25.8599 10.6417 25.8599 9.7842C25.8599 8.92672 25.1562 8.23103 24.2888 8.23103V8.23155ZM17.3003 10.0463C13.5874 10.0463 10.577 13.0224 10.577 16.6932C10.577 20.364 13.5874 23.3387 17.3003 23.3387C21.0133 23.3387 24.0227 20.364 24.0227 16.6932C24.0227 13.0226 21.0131 10.0463 17.3 10.0463H17.3003ZM17.3003 12.3788C19.7104 12.3788 21.6644 14.3103 21.6644 16.6932C21.6644 19.0759 19.7104 21.0077 17.3003 21.0077C14.8902 21.0077 12.9363 19.0759 12.9363 16.6932C12.9363 14.3103 14.89 12.3788 17.3003 12.3788Z" fill="white"/>
<defs>
<radialGradient id="paint0_radial_12525_22604" cx="0" cy="0" r="1" gradientUnits="userSpaceOnUse" gradientTransform="translate(9.44557 35.8113) rotate(-90) scale(32.8386 30.894)">
<stop stop-color="#FFDD55"/>
<stop offset="0.1" stop-color="#FFDD55"/>
<stop offset="0.5" stop-color="#FF543E"/>
<stop offset="1" stop-color="#C837AB"/>
</radialGradient>
<radialGradient id="paint1_radial_12525_22604" cx="0" cy="0" r="1" gradientUnits="userSpaceOnUse" gradientTransform="translate(-5.07104 2.51184) rotate(78.5541) scale(14.6856 61.1766)">
<stop stop-color="#3771C8"/>
<stop offset="0.128" stop-color="#3771C8"/>
<stop offset="1" stop-color="#6600FF" stop-opacity="0"/>
</radialGradient>
</defs>
</svg>
