<svg width="35" height="35" viewBox="0 0 35 35" fill="none" xmlns="http://www.w3.org/2000/svg">
<path d="M17.5 0C7.83508 0 0 7.83521 0 17.5C0 27.1655 7.83521 35 17.5 35C27.1656 35 35 27.1655 35 17.5C35 7.8359 27.1656 0.000957031 17.4997 0.000957031L17.5 0ZM25.5253 25.2402C25.2118 25.7543 24.5388 25.9172 24.0248 25.6017C19.916 23.0919 14.7436 22.5235 8.65211 23.9153C8.37003 23.9795 8.07398 23.929 7.82908 23.775C7.58418 23.621 7.41048 23.376 7.34617 23.094C7.31415 22.9544 7.30997 22.8098 7.33388 22.6685C7.35779 22.5273 7.40931 22.3922 7.4855 22.2708C7.56169 22.1495 7.66106 22.0444 7.77791 21.9616C7.89476 21.8787 8.0268 21.8197 8.16648 21.7879C14.8329 20.2649 20.5509 20.9206 25.1638 23.7397C25.6778 24.0553 25.8408 24.7261 25.5253 25.2402ZM27.6672 20.4751C27.2721 21.117 26.4321 21.3198 25.7906 20.9248C21.0867 18.0335 13.9162 17.1961 8.35242 18.885C7.63082 19.1029 6.86875 18.6963 6.64973 17.9759C6.43234 17.2543 6.83922 16.4936 7.55959 16.2743C13.915 14.3458 21.8159 15.28 27.218 18.5995C27.8595 18.9946 28.0622 19.8345 27.6672 20.4751ZM27.8511 15.5132C22.2109 12.163 12.9054 11.8549 7.52049 13.4895C6.65574 13.7517 5.74123 13.2635 5.47928 12.3988C5.21719 11.5336 5.70486 10.6198 6.57029 10.3569C12.7518 8.48025 23.0281 8.84297 29.5215 12.6979C30.3011 13.1595 30.556 14.1641 30.0941 14.9408C29.6345 15.7187 28.6271 15.975 27.8519 15.5132H27.8511Z" fill="white"/>
</svg>
