<svg width="47" height="39" viewBox="0 0 47 39" fill="none" xmlns="http://www.w3.org/2000/svg">
<path d="M45.9628 9.54123C45.6932 8.66349 45.1673 7.86327 44.4375 7.22028C43.7077 6.57728 42.7995 6.11393 41.8032 5.87638C38.1559 5 23.4766 5 23.4766 5C23.4766 5 8.79653 5.02653 5.14919 5.90291C4.1529 6.14048 3.24464 6.60385 2.51484 7.24687C1.78505 7.8899 1.25918 8.69015 0.989622 9.56792C-0.113611 15.2775 -0.541575 23.9776 1.01992 29.4588C1.2895 30.3365 1.81538 31.1367 2.54517 31.7797C3.27497 32.4227 4.18322 32.8861 5.17949 33.1236C8.82682 34 23.5065 34 23.5065 34C23.5065 34 38.186 34 41.8331 33.1236C42.8294 32.8861 43.7377 32.4228 44.4675 31.7798C45.1974 31.1368 45.7233 30.3365 45.9929 29.4588C47.1565 23.7411 47.5151 15.0464 45.9628 9.54123Z" fill="#FF0000"/>
<path d="M21 25L30 18L21 11V25Z" fill="white"/>
</svg>
