<svg width="64" height="64" viewBox="0 0 64 64" fill="none" xmlns="http://www.w3.org/2000/svg">
<path d="M63.5792 59.328L45.2998 28.208C44.1239 26.152 41.2119 26.152 40.036 28.208L21.7566 59.328C20.5726 61.4 22.0366 64 24.3885 64H60.95C63.3019 64 64.7658 61.3973 63.5792 59.328ZM42.6652 58.6667C41.1933 58.6667 39.9987 57.472 39.9987 56C39.9987 54.528 41.1933 53.3333 42.6652 53.3333C44.1372 53.3333 45.3318 54.528 45.3318 56C45.3318 57.472 44.1372 58.6667 42.6652 58.6667ZM45.3318 48C45.3318 49.472 44.1399 50.6667 42.6652 50.6667C41.1906 50.6667 39.9987 49.472 39.9987 48V40C39.9987 38.528 41.1906 37.3333 42.6652 37.3333C44.1399 37.3333 45.3318 38.528 45.3318 40V48ZM17.1221 56.6773L35.4335 25.5067C36.8974 22.952 39.6787 21.3333 42.6652 21.3333C45.6518 21.3333 48.433 22.952 49.9263 25.5573L63.9979 49.5093V13.3333C63.9979 5.98133 58.0167 0 50.665 0H13.3329C5.98113 0 0 5.98133 0 13.3333V50.6667C0 58.0187 5.98113 64 13.3329 64H16.6714C15.7328 61.624 15.8341 58.9307 17.1221 56.6773ZM21.3326 8C22.8046 8 23.9992 9.19467 23.9992 10.6667C23.9992 12.1387 22.8046 13.3333 21.3326 13.3333C19.8607 13.3333 18.666 12.1387 18.666 10.6667C18.666 9.19467 19.8607 8 21.3326 8ZM10.6663 13.3333C9.19436 13.3333 7.99973 12.1387 7.99973 10.6667C7.99973 9.19467 9.19436 8 10.6663 8C12.1383 8 13.3329 9.19467 13.3329 10.6667C13.3329 12.1387 12.1383 13.3333 10.6663 13.3333Z" fill="#3986A3"/>
</svg>
