<svg width="105" height="104" viewBox="0 0 105 104" fill="none" xmlns="http://www.w3.org/2000/svg">
<rect x="0.667969" width="104" height="104" rx="12" fill="#3986A3" fill-opacity="0.1"/>
<path d="M66.8902 65.3334C67.8331 65.3334 68.7375 65.6143 69.4043 66.1144C70.0711 66.6145 70.4457 67.2928 70.4457 68C70.4457 68.7073 70.0711 69.3855 69.4043 69.8856C68.7375 70.3857 67.8331 70.6667 66.8902 70.6667H63.3346C62.3916 70.6667 61.4872 70.3857 60.8204 69.8856C60.1536 69.3855 59.779 68.7073 59.779 68C59.779 67.2928 60.1536 66.6145 60.8204 66.1144C61.4872 65.6143 62.3916 65.3334 63.3346 65.3334H66.8902ZM59.779 60C58.8361 60 57.9317 59.7191 57.2649 59.219C56.5981 58.7189 56.2235 58.0406 56.2235 57.3334V54.6667H49.1124V57.3334C49.1124 58.0406 48.7378 58.7189 48.071 59.219C47.4042 59.7191 46.4998 60 45.5568 60C44.6138 60 43.7095 59.7191 43.0427 59.219C42.3759 58.7189 42.0013 58.0406 42.0013 57.3334V46.6667C42.0013 44.545 43.1251 42.5101 45.1255 41.0098C47.1259 39.5096 49.839 38.6667 52.6679 38.6667C55.4969 38.6667 58.21 39.5096 60.2104 41.0098C62.2108 42.5101 63.3346 44.545 63.3346 46.6667V57.3334C63.3346 58.0406 62.96 58.7189 62.2932 59.219C61.6264 59.7191 60.722 60 59.779 60ZM56.2235 49.3334V46.6667C56.2235 45.9594 55.8489 45.2812 55.1821 44.7811C54.5153 44.281 53.6109 44 52.6679 44C51.725 44 50.8206 44.281 50.1538 44.7811C49.487 45.2812 49.1124 45.9594 49.1124 46.6667V49.3334H56.2235ZM50.1399 63.4667L44.4084 67.8133C44.2479 67.9344 44.0315 68.0047 43.8039 68.0096C43.5764 68.0146 43.3549 67.9539 43.1853 67.84L40.9951 66.1333C40.335 65.6263 39.4333 65.3366 38.4885 65.3281C37.5436 65.3196 36.633 65.5929 35.9568 66.088C35.2807 66.5831 34.8945 67.2593 34.8832 67.968C34.8718 68.6766 35.2363 69.3596 35.8964 69.8667L38.1222 71.584C39.6254 72.7092 41.6624 73.3412 43.7862 73.3412C45.91 73.3412 47.947 72.7092 49.4502 71.584L55.1959 67.2C55.7842 66.6874 56.0907 66.0262 56.0535 65.3505C56.0163 64.6747 55.6381 64.0348 54.9955 63.5603C54.3529 63.0858 53.4938 62.8121 52.5923 62.7947C51.6908 62.7774 50.8142 63.0176 50.1399 63.4667ZM84.6679 37.752V70.6667C84.6623 74.2016 82.7875 77.5905 79.4547 80.0901C76.1219 82.5897 71.6034 83.9958 66.8902 84H38.4457C33.7325 83.9958 29.2139 82.5897 25.8812 80.0901C22.5484 77.5905 20.6736 74.2016 20.668 70.6667V33.3334C20.6736 29.7984 22.5484 26.4095 25.8812 23.91C29.2139 21.4104 33.7325 20.0043 38.4457 20H60.9986C63.3345 19.9955 65.6484 20.3385 67.8065 21.0091C69.9645 21.6796 71.9238 22.6645 73.571 23.9067L79.459 28.3227C81.1153 29.5581 82.4285 31.0276 83.3226 32.6461C84.2167 34.2647 84.6739 36.0001 84.6679 37.752ZM68.5435 27.6774C68.0381 27.3005 67.4843 26.9619 66.8902 26.6667V33.3334H75.779C75.3843 32.8876 74.9317 32.4723 74.4279 32.0934L68.5435 27.6774ZM80.668 37.4894H67.8065C65.9205 37.4894 64.6682 37.0002 63.3346 36C62.001 34.9998 61.8618 34.7479 61.8618 33.3334V23.9067H38.4457C35.6168 23.9067 30.6684 25.1664 28.668 26.6667C26.6676 28.167 24.668 31.2116 24.668 33.3334V71.584C24.668 73.7057 28.0009 77.1664 30.0013 78.6667C32.0017 80.167 35.2932 80.0901 38.1222 80.0901H66.8902C69.7191 80.0901 73.7787 78.8336 75.779 77.3333C77.7794 75.833 80.668 72.7884 80.668 70.6667V54.6667V37.4894Z" fill="#3986A3"/>
</svg>
