<svg width="104" height="104" viewBox="0 0 104 104" fill="none" xmlns="http://www.w3.org/2000/svg">
<rect width="104" height="104" rx="12" fill="#3986A3" fill-opacity="0.1"/>
<g clip-path="url(#clip0_16366_27999)">
<path d="M60.3311 20C62.6668 19.9956 64.9808 20.3383 67.1387 21.0088C69.2967 21.6794 71.2561 22.6651 72.9033 23.9073L78.791 28.3223C80.4473 29.5577 81.7602 31.028 82.6543 32.6465C83.5483 34.265 84.006 36.0001 84 37.752V70.667C83.9942 74.2017 82.1195 77.5904 78.7871 80.0899C75.4544 82.5895 70.9349 83.9958 66.2217 84H37.7773C33.0643 83.9957 28.5455 82.5894 25.2129 80.0899C21.8804 77.5904 20.0058 74.2017 20 70.667V33.3331C20.0058 29.7984 21.8804 26.4097 25.2129 23.9102C28.5455 21.4107 33.0643 20.0044 37.7773 20H60.3311ZM37.7773 23.9063C34.9484 23.9064 30.0004 25.1659 28 26.6661C25.9996 28.1663 24 31.2113 24 33.3331V71.584C24.0004 73.7057 27.3327 77.1657 29.333 78.6661C31.0833 79.9788 33.8225 80.0841 36.375 80.0899H66.2217C69.0506 80.0899 73.1109 78.8333 75.1113 77.333C77.1117 75.8327 80 72.7877 80 70.6661V37.4893H67.1387C65.2529 37.4893 64.0004 37 62.667 36C61.3334 34.9999 61.1934 34.7475 61.1934 33.3331V23.9063H37.7773ZM66.2188 33.3331H75.1074C74.7129 32.8875 74.2604 32.4725 73.7568 32.0938L67.8721 27.6778C67.3667 27.3009 66.8129 26.9622 66.2188 26.667V33.3331Z" fill="#3986A3"/>
<mask id="path-3-inside-1_16366_27999" fill="white">
<path d="M38.0469 38.0898H48.1387H38.0469Z"/>
</mask>
<path d="M38.0469 35.5898C36.6662 35.5898 35.5469 36.7091 35.5469 38.0898C35.5469 39.4706 36.6662 40.5898 38.0469 40.5898V38.0898V35.5898ZM48.1387 40.5898C49.5194 40.5898 50.6387 39.4706 50.6387 38.0898C50.6387 36.7091 49.5194 35.5898 48.1387 35.5898V38.0898V40.5898ZM38.0469 38.0898V40.5898H48.1387V38.0898V35.5898H38.0469V38.0898Z" fill="#3986A3" mask="url(#path-3-inside-1_16366_27999)"/>
<mask id="path-5-inside-2_16366_27999" fill="white">
<path d="M38.0469 51.5H64.9563H38.0469Z"/>
</mask>
<path d="M38.0469 49C36.6662 49 35.5469 50.1193 35.5469 51.5C35.5469 52.8807 36.6662 54 38.0469 54V51.5V49ZM64.9563 54C66.337 54 67.4563 52.8807 67.4563 51.5C67.4563 50.1193 66.337 49 64.9563 49V51.5V54ZM38.0469 51.5V54H64.9563V51.5V49H38.0469V51.5Z" fill="#3986A3" mask="url(#path-5-inside-2_16366_27999)"/>
<mask id="path-7-inside-3_16366_27999" fill="white">
<path d="M38.0469 64.9121H51.5016H64.9563"/>
</mask>
<path d="M38.0469 62.4121C36.6662 62.4121 35.5469 63.5314 35.5469 64.9121C35.5469 66.2928 36.6662 67.4121 38.0469 67.4121V64.9121V62.4121ZM64.9563 67.4121C66.337 67.4121 67.4563 66.2928 67.4563 64.9121C67.4563 63.5314 66.337 62.4121 64.9563 62.4121V64.9121V67.4121ZM38.0469 64.9121V67.4121H51.5016V64.9121V62.4121H38.0469V64.9121ZM51.5016 64.9121V67.4121H64.9563V64.9121V62.4121H51.5016V64.9121Z" fill="#3986A3" mask="url(#path-7-inside-3_16366_27999)"/>
</g>
<defs>
<clipPath id="clip0_16366_27999">
<rect width="64" height="64" fill="white" transform="translate(20 20)"/>
</clipPath>
</defs>
</svg>
