<svg width="105" height="104" viewBox="0 0 105 104" fill="none" xmlns="http://www.w3.org/2000/svg">
<rect x="0.335938" width="104" height="104" rx="12" fill="#3986A3" fill-opacity="0.1"/>
<path d="M83.5851 30.9905L73.3455 20.7508C73.1077 20.5128 72.8254 20.324 72.5146 20.1951C72.2039 20.0663 71.8707 20 71.5343 20C71.1979 20 70.8648 20.0663 70.554 20.1951C70.2433 20.324 69.9609 20.5128 69.7232 20.7508L39.0042 51.4698C38.7665 51.7077 38.5781 51.9901 38.4496 52.3009C38.3211 52.6117 38.2551 52.9447 38.2554 53.281V63.5206C38.2554 64.1996 38.5251 64.8507 39.0052 65.3308C39.4852 65.8109 40.1364 66.0806 40.8153 66.0806H51.055C51.3912 66.0808 51.7243 66.0148 52.035 65.8864C52.3458 65.7579 52.6282 65.5694 52.8661 65.3318L83.5851 34.6128C83.8232 34.375 84.012 34.0927 84.1408 33.7819C84.2696 33.4711 84.3359 33.138 84.3359 32.8016C84.3359 32.4652 84.2696 32.1321 84.1408 31.8213C84.012 31.5105 83.8232 31.2282 83.5851 30.9905ZM49.9958 60.9607H43.3752V54.3401L63.8546 33.8608L70.4752 40.4814L49.9958 60.9607ZM74.0942 36.8623L67.4737 30.2417L71.5343 26.181L78.1549 32.8016L74.0942 36.8623ZM81.774 53.281V78.8802C81.774 80.238 81.2346 81.5403 80.2744 82.5004C79.3143 83.4606 78.012 84 76.6542 84H25.4558C24.0979 84 22.7957 83.4606 21.8355 82.5004C20.8753 81.5403 20.3359 80.238 20.3359 78.8802V27.6818C20.3359 26.3239 20.8753 25.0217 21.8355 24.0615C22.7957 23.1013 24.0979 22.5619 25.4558 22.5619H51.055C51.7339 22.5619 52.385 22.8316 52.8651 23.3117C53.3452 23.7918 53.6149 24.4429 53.6149 25.1219C53.6149 25.8008 53.3452 26.4519 52.8651 26.932C52.385 27.4121 51.7339 27.6818 51.055 27.6818H25.4558V78.8802H76.6542V53.281C76.6542 52.602 76.9239 51.9509 77.4039 51.4708C77.884 50.9908 78.5352 50.721 79.2141 50.721C79.893 50.721 80.5441 50.9908 81.0242 51.4708C81.5043 51.9509 81.774 52.602 81.774 53.281Z" fill="#3986A3"/>
</svg>
