<svg width="20" height="21" viewBox="0 0 20 21" fill="none" xmlns="http://www.w3.org/2000/svg">
<path d="M1 19.5L5.99999 14.5L1 19.5ZM11.259 17.371C7.51498 16.521 3.97899 12.985 3.12899 9.24103C2.99399 8.64903 2.92699 8.35303 3.12199 7.87203C3.31599 7.39203 3.55499 7.24203 4.03099 6.94503C5.10699 6.27304 6.27299 6.05904 7.48198 6.16504C9.17898 6.31604 10.028 6.39104 10.452 6.17004C10.875 5.95004 11.162 5.43404 11.738 4.40304L12.466 3.09604C12.946 2.23605 13.186 1.80505 13.751 1.60205C14.316 1.39905 14.656 1.52205 15.336 1.76805C16.1174 2.04866 16.8271 2.49865 17.4142 3.08576C18.0014 3.67288 18.4513 4.38259 18.732 5.16404C18.978 5.84404 19.101 6.18404 18.898 6.74903C18.695 7.31303 18.265 7.55303 17.404 8.03403L16.067 8.77903C15.037 9.35303 14.523 9.64103 14.302 10.068C14.082 10.496 14.162 11.326 14.322 12.986C14.44 14.206 14.237 15.38 13.556 16.47C13.258 16.946 13.109 17.184 12.628 17.379C12.148 17.573 11.852 17.506 11.259 17.371Z" fill="#3986A3"/>
<path d="M1 19.5L5.99999 14.5M11.259 17.371C7.51498 16.521 3.97899 12.985 3.12899 9.24103C2.99399 8.64903 2.92699 8.35303 3.12199 7.87203C3.31599 7.39203 3.55499 7.24203 4.03099 6.94503C5.10699 6.27304 6.27299 6.05904 7.48198 6.16504C9.17898 6.31604 10.028 6.39104 10.452 6.17004C10.875 5.95004 11.162 5.43404 11.738 4.40304L12.466 3.09604C12.946 2.23605 13.186 1.80505 13.751 1.60205C14.316 1.39905 14.656 1.52205 15.336 1.76805C16.1174 2.04866 16.8271 2.49865 17.4142 3.08576C18.0014 3.67288 18.4513 4.38259 18.732 5.16404C18.978 5.84404 19.101 6.18404 18.898 6.74903C18.695 7.31303 18.265 7.55303 17.404 8.03403L16.067 8.77903C15.037 9.35303 14.523 9.64103 14.302 10.068C14.082 10.496 14.162 11.326 14.322 12.986C14.44 14.206 14.237 15.38 13.556 16.47C13.258 16.946 13.109 17.184 12.628 17.379C12.148 17.573 11.852 17.506 11.259 17.371Z" stroke="#3986A3" stroke-width="1.5" stroke-linecap="round" stroke-linejoin="round"/>
</svg>
