<svg width="13" height="16" viewBox="0 0 13 16" fill="none" xmlns="http://www.w3.org/2000/svg">
<path fill-rule="evenodd" clip-rule="evenodd" d="M6.16016 0.489746C2.84666 0.489746 0.160156 3.22425 0.160156 6.597C0.160156 9.9435 2.07491 13.8495 5.06291 15.2452C5.40634 15.4061 5.78093 15.4894 6.16016 15.4894C6.53938 15.4894 6.91397 15.4061 7.25741 15.2452C10.2454 13.8487 12.1602 9.94425 12.1602 6.59775C12.1602 3.2235 9.47366 0.489746 6.16016 0.489746ZM3.91016 5.5575C3.91016 6.3225 4.78391 7.13025 5.44241 7.63125C5.75741 7.8705 5.91491 7.98975 6.16016 7.98975C6.40616 7.98975 6.56291 7.86975 6.87791 7.6305C7.53641 7.131 8.41016 6.32325 8.41016 5.55825C8.41016 4.2585 7.17266 3.77325 6.16016 4.7775C5.14766 3.77325 3.91016 4.2585 3.91016 5.55825" fill="#3986A3"/>
</svg>
